<?xml version="1.0" encoding="UTF-8" standalone="no"?>
<svg xmlns="http://www.w3.org/2000/svg" focusable="false" data-prefix="fas" viewBox="0 0 448 512" data-icon="bars" role="img" aria-hidden="true" class="svg-inline--fa fa-bars fa-w-14">
 <path d="m16 132h416c8.837 0 16-7.163 16-16v-40c0-8.837-7.163-16-16-16h-416c-8.837 0-16 7.163-16 16v40c0 8.837 7.163 16 16 16zm0 160h416c8.837 0 16-7.163 16-16v-40c0-8.837-7.163-16-16-16h-416c-8.837 0-16 7.163-16 16v40c0 8.837 7.163 16 16 16zm0 160h416c8.837 0 16-7.163 16-16v-40c0-8.837-7.163-16-16-16h-416c-8.837 0-16 7.163-16 16v40c0 8.837 7.163 16 16 16z" fill="#fff"/>
</svg>
