<svg width="600" height="320" viewBox="0 0 600 320" fill="none" xmlns="http://www.w3.org/2000/svg">
<rect x="0.5" y="0.5" width="599" height="319" rx="9.5" fill="#200D0D"/>
<rect x="11.5" y="11.5" width="577" height="297" rx="8.5" fill="#200D0D" stroke="#BD6248" stroke-width="3"/>
<path d="M181.632 158.976L181.584 153.264C181.584 147.6 181.392 143.84 181.008 141.984C180.944 141.76 180.912 141.584 180.912 141.456C180.912 140.912 181.456 140.448 182.544 140.064C183.632 139.68 184.496 139.488 185.136 139.488C185.776 139.488 186.096 139.68 186.096 140.064C186.096 140.096 186.064 140.272 186 140.592C185.264 144.528 184.896 150.784 184.896 159.36C184.896 165.216 185.232 169.424 185.904 171.984C186.032 172.4 186.096 172.624 186.096 172.656C186.096 173.328 185.36 173.872 183.888 174.288C182.416 174.736 181.376 174.96 180.768 174.96C179.808 174.96 179.152 174.736 178.8 174.288C178.096 173.392 176.944 170.88 175.344 166.752C173.776 162.592 172.4 158.72 171.216 155.136L169.392 149.76C169.328 149.6 169.248 149.52 169.152 149.52C169.024 149.52 168.88 149.632 168.72 149.856C168.56 152.832 168.48 155.808 168.48 158.784C168.48 161.76 168.496 164.048 168.528 165.648C168.592 167.248 168.656 168.464 168.72 169.296C168.784 170.128 168.848 170.8 168.912 171.312C168.976 171.792 169.024 172.144 169.056 172.368C169.12 172.592 169.152 172.752 169.152 172.848C169.152 173.456 168.624 173.92 167.568 174.24C166.512 174.592 165.552 174.768 164.688 174.768C163.856 174.768 163.44 174.576 163.44 174.192C163.44 174 163.488 173.76 163.584 173.472C163.68 173.184 163.792 172.816 163.92 172.368C164.24 171.248 164.464 169.216 164.592 166.272C164.72 163.296 164.784 159.92 164.784 156.144C164.784 152.336 164.736 149.568 164.64 147.84C164.48 145.024 164.192 143.136 163.776 142.176C163.68 142.08 163.632 141.952 163.632 141.792C163.632 141.28 164.48 140.784 166.176 140.304C167.872 139.824 169.184 139.584 170.112 139.584C171.072 139.584 171.632 139.6 171.792 139.632C172.24 139.6 172.512 139.856 172.608 140.4C173.536 143.76 174.832 147.712 176.496 152.256C178.192 156.8 179.696 160.272 181.008 162.672C181.168 162.832 181.296 162.912 181.392 162.912C181.552 162.912 181.632 161.6 181.632 158.976ZM205.019 159.6L204.923 165.744C204.923 170 205.387 172.56 206.315 173.424C206.443 173.552 206.507 173.696 206.507 173.856C206.507 174.336 205.467 174.576 203.387 174.576C201.339 174.576 200.251 173.968 200.123 172.752C200.091 172.464 200.075 171.872 200.075 170.976L200.267 163.296C200.267 163.072 200.139 162.96 199.883 162.96C198.347 162.96 196.907 163.392 195.563 164.256C194.219 165.12 193.547 166.224 193.547 167.568C193.547 168.272 193.739 168.864 194.123 169.344C194.507 169.824 194.971 170.064 195.515 170.064C196.091 170.064 196.555 169.952 196.907 169.728C197.291 169.504 197.515 169.376 197.579 169.344C198.123 169.408 198.395 169.984 198.395 171.072C198.395 172.128 197.899 172.992 196.907 173.664C195.915 174.304 194.875 174.624 193.787 174.624C192.699 174.624 191.755 174.432 190.955 174.048C190.187 173.664 189.627 173.232 189.275 172.752C188.923 172.272 188.635 171.728 188.411 171.12C188.187 170.384 188.075 169.744 188.075 169.2C188.075 166.96 188.779 165.168 190.187 163.824C191.595 162.48 193.403 161.52 195.611 160.944C198.523 160.368 200.043 159.84 200.171 159.36C200.267 159.008 200.315 158.416 200.315 157.584C200.315 155.888 199.451 155.04 197.723 155.04C196.987 155.04 196.331 155.28 195.755 155.76C195.179 156.208 194.891 156.784 194.891 157.488L195.179 158.64C195.115 159.184 194.539 159.504 193.451 159.6L192.923 159.648C191.963 159.648 191.195 159.408 190.619 158.928C190.075 158.448 189.803 157.808 189.803 157.008C189.803 156.496 189.963 155.936 190.283 155.328C190.635 154.688 191.067 154.176 191.579 153.792C192.091 153.408 192.875 153.072 193.931 152.784C195.019 152.464 196.059 152.304 197.051 152.304C198.043 152.304 198.811 152.336 199.355 152.4C199.899 152.464 200.635 152.624 201.563 152.88C202.523 153.104 203.307 153.552 203.915 154.224C204.555 154.896 204.891 155.616 204.923 156.384C204.987 157.12 205.019 158.192 205.019 159.6ZM218.628 152.88L223.86 152.736C224.276 152.736 224.484 152.912 224.484 153.264C224.484 153.904 223.476 155.792 221.46 158.928C219.444 162.064 217.684 164.8 216.18 167.136C214.708 169.472 213.972 170.88 213.972 171.36C213.972 171.68 214.42 171.84 215.316 171.84C216.212 171.84 216.996 171.712 217.668 171.456C218.34 171.168 218.836 170.8 219.156 170.352C219.7 169.584 219.972 168.88 219.972 168.24C219.972 167.6 219.908 166.976 219.78 166.368C219.78 165.984 220.132 165.76 220.836 165.696C222.5 165.696 223.604 166.16 224.148 167.088C224.564 167.824 224.772 168.576 224.772 169.344C224.772 171.072 224.068 172.368 222.66 173.232C221.252 174.096 219.588 174.528 217.668 174.528L212.196 174.384L207.348 174.48C206.772 174.48 206.484 174.288 206.484 173.904C206.484 173.488 206.996 172.432 208.02 170.736C209.076 169.04 210.132 167.44 211.188 165.936L212.772 163.68C215.46 159.456 216.884 157.184 217.044 156.864C217.236 156.512 217.332 156.208 217.332 155.952C217.332 155.504 216.868 155.28 215.94 155.28C215.012 155.28 214.164 155.408 213.396 155.664C212.66 155.92 212.052 156.24 211.572 156.624C211.092 156.976 210.676 157.344 210.324 157.728C209.684 158.432 209.364 158.88 209.364 159.072C209.268 159.392 209.092 159.552 208.836 159.552H208.788C208.34 159.552 208.116 159.28 208.116 158.736C208.116 157.488 208.404 156.016 208.98 154.32L209.316 153.456C209.444 153.008 209.78 152.784 210.324 152.784L218.628 152.88ZM242.238 159.6L242.142 165.744C242.142 170 242.606 172.56 243.534 173.424C243.662 173.552 243.726 173.696 243.726 173.856C243.726 174.336 242.686 174.576 240.606 174.576C238.558 174.576 237.47 173.968 237.342 172.752C237.31 172.464 237.294 171.872 237.294 170.976L237.486 163.296C237.486 163.072 237.358 162.96 237.102 162.96C235.566 162.96 234.126 163.392 232.782 164.256C231.438 165.12 230.766 166.224 230.766 167.568C230.766 168.272 230.958 168.864 231.342 169.344C231.726 169.824 232.19 170.064 232.734 170.064C233.31 170.064 233.774 169.952 234.126 169.728C234.51 169.504 234.734 169.376 234.798 169.344C235.342 169.408 235.614 169.984 235.614 171.072C235.614 172.128 235.118 172.992 234.126 173.664C233.134 174.304 232.094 174.624 231.006 174.624C229.918 174.624 228.974 174.432 228.174 174.048C227.406 173.664 226.846 173.232 226.494 172.752C226.142 172.272 225.854 171.728 225.63 171.12C225.406 170.384 225.294 169.744 225.294 169.2C225.294 166.96 225.998 165.168 227.406 163.824C228.814 162.48 230.622 161.52 232.83 160.944C235.742 160.368 237.262 159.84 237.39 159.36C237.486 159.008 237.534 158.416 237.534 157.584C237.534 155.888 236.67 155.04 234.942 155.04C234.206 155.04 233.55 155.28 232.974 155.76C232.398 156.208 232.11 156.784 232.11 157.488L232.398 158.64C232.334 159.184 231.758 159.504 230.67 159.6L230.142 159.648C229.182 159.648 228.414 159.408 227.838 158.928C227.294 158.448 227.022 157.808 227.022 157.008C227.022 156.496 227.182 155.936 227.502 155.328C227.854 154.688 228.286 154.176 228.798 153.792C229.31 153.408 230.094 153.072 231.15 152.784C232.238 152.464 233.278 152.304 234.27 152.304C235.262 152.304 236.03 152.336 236.574 152.4C237.118 152.464 237.854 152.624 238.782 152.88C239.742 153.104 240.526 153.552 241.134 154.224C241.774 154.896 242.11 155.616 242.142 156.384C242.206 157.12 242.238 158.192 242.238 159.6ZM259.783 161.136L259.975 162.816C259.975 163.424 259.399 163.728 258.247 163.728C255.911 163.728 254.743 162.848 254.743 161.088C254.743 160.672 254.855 160.096 255.079 159.36C255.303 158.624 255.415 157.984 255.415 157.44C255.415 156.896 255.255 156.432 254.935 156.048C254.615 155.632 254.151 155.424 253.543 155.424C252.935 155.424 252.407 155.648 251.959 156.096C251.543 156.512 251.287 156.944 251.191 157.392L250.999 158.064C250.807 159.056 250.711 160.72 250.711 163.056C250.711 165.36 250.743 167.184 250.807 168.528C250.871 169.84 250.935 170.752 250.999 171.264C251.063 171.744 251.095 172.032 251.095 172.128C251.095 172.928 250.599 173.568 249.607 174.048C248.615 174.56 247.623 174.816 246.631 174.816C245.639 174.816 245.143 174.608 245.143 174.192L245.383 172.704C245.831 169.92 246.055 166.288 246.055 161.808C246.055 157.328 245.895 154.288 245.575 152.688C245.575 152.304 245.911 152.112 246.583 152.112C248.311 152.112 249.463 152.704 250.039 153.888C250.071 154.016 250.119 154.08 250.183 154.08C250.279 154.08 250.503 153.936 250.855 153.648C251.911 152.784 253.159 152.352 254.599 152.352C255.495 152.352 256.391 152.528 257.287 152.88C259.111 153.616 260.023 155.152 260.023 157.488L259.783 161.136ZM271.983 155.328L271.743 146.256C271.743 144.816 271.583 143.68 271.263 142.848C270.943 142.016 270.783 141.568 270.783 141.504C270.783 140.8 271.855 140.256 273.999 139.872C276.175 139.488 277.823 139.296 278.943 139.296C280.095 139.296 280.719 139.568 280.815 140.112C282.831 149.104 284.527 155.344 285.903 158.832C286.063 159.216 286.223 159.408 286.383 159.408C286.575 159.408 286.735 159.264 286.863 158.976C289.007 152.928 290.895 146.944 292.527 141.024C292.655 140.64 292.975 140.352 293.487 140.16C293.999 139.936 294.879 139.728 296.127 139.536C297.407 139.344 298.671 139.248 299.919 139.248C301.167 139.248 301.791 139.504 301.791 140.016C301.791 140.048 301.743 140.304 301.647 140.784C301.551 141.232 301.455 141.792 301.359 142.464C301.263 143.136 301.151 143.952 301.023 144.912C300.735 147.12 300.543 149.664 300.447 152.544C300.383 155.392 300.351 158.256 300.351 161.136L300.447 166.176C300.447 168.48 300.591 170.128 300.879 171.12C301.199 172.08 301.359 172.64 301.359 172.8C301.359 172.928 301.247 173.088 301.023 173.28C300.031 174.08 298.527 174.48 296.511 174.48C295.231 174.48 294.511 174.048 294.351 173.184C294.255 172.736 294.207 172.032 294.207 171.072C294.207 170.08 294.303 167.072 294.495 162.048C294.687 157.024 294.783 153.376 294.783 151.104C294.783 148.8 294.655 147.648 294.399 147.648C294.367 147.648 294.351 147.664 294.351 147.696C294.351 147.696 294.303 147.712 294.207 147.744C294.111 147.776 293.855 148.272 293.439 149.232C293.055 150.192 292.271 152.56 291.087 156.336C289.903 160.112 288.831 163.648 287.871 166.944C286.911 170.208 286.383 171.968 286.287 172.224C285.935 173.088 285.263 173.52 284.271 173.52C283.791 173.52 283.407 173.344 283.119 172.992C282.095 168.256 280.271 161.488 277.647 152.688L276.303 148.32C276.239 148.16 276.175 148.08 276.111 148.08C275.951 148.08 275.839 148.192 275.775 148.416C275.647 150.496 275.583 154.592 275.583 160.704C275.583 166.784 275.807 170.624 276.255 172.224C276.287 172.288 276.303 172.384 276.303 172.512C276.303 173.184 275.775 173.68 274.719 174C273.663 174.288 272.703 174.432 271.839 174.432C271.007 174.432 270.591 174.24 270.591 173.856C270.591 173.824 270.671 173.568 270.831 173.088C271.311 171.456 271.615 169.088 271.743 165.984C271.903 162.88 271.983 159.328 271.983 155.328ZM320.238 159.6L320.142 165.744C320.142 170 320.606 172.56 321.534 173.424C321.662 173.552 321.726 173.696 321.726 173.856C321.726 174.336 320.686 174.576 318.606 174.576C316.558 174.576 315.47 173.968 315.342 172.752C315.31 172.464 315.294 171.872 315.294 170.976L315.486 163.296C315.486 163.072 315.358 162.96 315.102 162.96C313.566 162.96 312.126 163.392 310.782 164.256C309.438 165.12 308.766 166.224 308.766 167.568C308.766 168.272 308.958 168.864 309.342 169.344C309.726 169.824 310.19 170.064 310.734 170.064C311.31 170.064 311.774 169.952 312.126 169.728C312.51 169.504 312.734 169.376 312.798 169.344C313.342 169.408 313.614 169.984 313.614 171.072C313.614 172.128 313.118 172.992 312.126 173.664C311.134 174.304 310.094 174.624 309.006 174.624C307.918 174.624 306.974 174.432 306.174 174.048C305.406 173.664 304.846 173.232 304.494 172.752C304.142 172.272 303.854 171.728 303.63 171.12C303.406 170.384 303.294 169.744 303.294 169.2C303.294 166.96 303.998 165.168 305.406 163.824C306.814 162.48 308.622 161.52 310.83 160.944C313.742 160.368 315.262 159.84 315.39 159.36C315.486 159.008 315.534 158.416 315.534 157.584C315.534 155.888 314.67 155.04 312.942 155.04C312.206 155.04 311.55 155.28 310.974 155.76C310.398 156.208 310.11 156.784 310.11 157.488L310.398 158.64C310.334 159.184 309.758 159.504 308.67 159.6L308.142 159.648C307.182 159.648 306.414 159.408 305.838 158.928C305.294 158.448 305.022 157.808 305.022 157.008C305.022 156.496 305.182 155.936 305.502 155.328C305.854 154.688 306.286 154.176 306.798 153.792C307.31 153.408 308.094 153.072 309.15 152.784C310.238 152.464 311.278 152.304 312.27 152.304C313.262 152.304 314.03 152.336 314.574 152.4C315.118 152.464 315.854 152.624 316.782 152.88C317.742 153.104 318.526 153.552 319.134 154.224C319.774 154.896 320.11 155.616 320.142 156.384C320.206 157.12 320.238 158.192 320.238 159.6ZM337.783 161.136L337.975 162.816C337.975 163.424 337.399 163.728 336.247 163.728C333.911 163.728 332.743 162.848 332.743 161.088C332.743 160.672 332.855 160.096 333.079 159.36C333.303 158.624 333.415 157.984 333.415 157.44C333.415 156.896 333.255 156.432 332.935 156.048C332.615 155.632 332.151 155.424 331.543 155.424C330.935 155.424 330.407 155.648 329.959 156.096C329.543 156.512 329.287 156.944 329.191 157.392L328.999 158.064C328.807 159.056 328.711 160.72 328.711 163.056C328.711 165.36 328.743 167.184 328.807 168.528C328.871 169.84 328.935 170.752 328.999 171.264C329.063 171.744 329.095 172.032 329.095 172.128C329.095 172.928 328.599 173.568 327.607 174.048C326.615 174.56 325.623 174.816 324.631 174.816C323.639 174.816 323.143 174.608 323.143 174.192L323.383 172.704C323.831 169.92 324.055 166.288 324.055 161.808C324.055 157.328 323.895 154.288 323.575 152.688C323.575 152.304 323.911 152.112 324.583 152.112C326.311 152.112 327.463 152.704 328.039 153.888C328.071 154.016 328.119 154.08 328.183 154.08C328.279 154.08 328.503 153.936 328.855 153.648C329.911 152.784 331.159 152.352 332.599 152.352C333.495 152.352 334.391 152.528 335.287 152.88C337.111 153.616 338.023 155.152 338.023 157.488L337.783 161.136ZM339.486 155.28L339.63 153.36C339.662 153.072 339.886 152.928 340.302 152.928H341.982L341.79 149.088V148.896C341.79 148.16 342.35 147.456 343.47 146.784C344.59 146.112 345.614 145.776 346.542 145.776C346.83 145.776 346.974 145.904 346.974 146.16V146.208C346.846 147.072 346.718 149.296 346.59 152.88C347.998 152.88 348.894 152.848 349.278 152.784C349.662 152.72 349.87 152.688 349.902 152.688C350.126 152.688 350.238 152.88 350.238 153.264C350.238 153.648 350.062 154.144 349.71 154.752C349.358 155.328 348.974 155.632 348.558 155.664H346.542C346.51 156.752 346.494 158.592 346.494 161.184C346.494 163.744 346.51 165.856 346.542 167.52C346.606 169.184 346.67 170.448 346.734 171.312C346.798 172.144 346.862 172.816 346.926 173.328C347.022 173.84 347.086 174.208 347.118 174.432C347.182 174.656 347.214 174.8 347.214 174.864C347.214 175.184 347.006 175.36 346.59 175.392C345.342 175.392 344.094 175.216 342.846 174.864C341.63 174.512 341.022 173.904 341.022 173.04C341.694 167.664 342.03 161.888 342.03 155.712C341.166 155.712 340.51 155.744 340.062 155.808H340.014C339.726 155.808 339.55 155.632 339.486 155.28ZM359.905 187.296C359.905 187.68 359.713 187.872 359.329 187.872H359.281C358.225 187.872 357.025 187.504 355.681 186.768C354.369 186.032 353.713 185.184 353.713 184.224C353.713 183.264 354.321 181.584 355.537 179.184C356.753 176.816 357.361 175.232 357.361 174.432C357.361 173.568 356.945 172.016 356.113 169.776C355.057 166.864 354.209 164.496 353.569 162.672C352.961 160.848 352.289 159.248 351.553 157.872C350.849 156.464 350.337 155.632 350.017 155.376L349.537 155.04C349.185 154.848 349.009 154.64 349.009 154.416C349.009 153.968 349.697 153.52 351.073 153.072C352.481 152.592 353.713 152.352 354.769 152.352C355.249 152.352 355.649 152.736 355.969 153.504C356.545 155.008 357.169 157.088 357.841 159.744C359.473 165.184 360.497 167.904 360.913 167.904C361.201 167.904 361.777 166.784 362.641 164.544C363.537 162.304 363.985 160.496 363.985 159.12C363.985 156.72 363.281 155.312 361.873 154.896C361.553 154.832 361.393 154.672 361.393 154.416C361.393 153.84 362.145 153.296 363.649 152.784C365.153 152.24 366.513 151.968 367.729 151.968C368.785 151.968 369.313 152.656 369.313 154.032C369.313 155.088 369.089 156.32 368.641 157.728C368.193 159.136 367.777 160.256 367.393 161.088C367.009 161.888 366.049 163.776 364.513 166.752C363.009 169.696 361.761 172.288 360.769 174.528C359.681 177.216 359.137 179.952 359.137 182.736C359.137 184.208 359.265 185.312 359.521 186.048C359.777 186.784 359.905 187.2 359.905 187.296ZM370.065 174.336C370.641 170.88 370.929 166.736 370.929 161.904C370.929 157.072 370.785 153.936 370.497 152.496C370.497 152.08 370.977 151.872 371.937 151.872C373.409 151.872 374.385 152.432 374.865 153.552C374.897 153.648 374.977 153.696 375.105 153.696C375.233 153.696 375.329 153.664 375.393 153.6C376.385 152.576 377.921 152.064 380.001 152.064C382.081 152.064 383.729 152.592 384.945 153.648C386.161 154.704 386.769 156.24 386.769 158.256C386.769 159.472 386.657 161.2 386.433 163.44C386.241 165.68 386.145 167.344 386.145 168.432C386.145 171.024 386.577 172.896 387.441 174.048C387.569 174.208 387.633 174.368 387.633 174.528C387.633 174.944 387.185 175.152 386.289 175.152C382.321 175.152 380.337 173.392 380.337 169.872C380.337 168.528 380.641 166.656 381.249 164.256C381.857 161.856 382.161 160.032 382.161 158.784C382.161 156.224 381.105 154.944 378.993 154.944C377.969 154.944 377.185 155.248 376.641 155.856C376.129 156.464 375.841 157.168 375.777 157.968C375.713 158.736 375.681 160.208 375.681 162.384C375.681 165.712 375.793 168.608 376.017 171.072L376.113 172.128C376.113 173.024 375.521 173.712 374.337 174.192C373.185 174.704 372.177 174.96 371.313 174.96C370.481 174.96 370.065 174.752 370.065 174.336ZM394.181 148.32L393.029 148.272C392.165 148.272 391.605 148.48 391.349 148.896C391.285 148.992 391.205 149.04 391.109 149.04C390.693 149.04 390.485 148.336 390.485 146.928C390.485 145.488 390.693 144.576 391.109 144.192C391.557 143.808 392.309 143.616 393.365 143.616C394.453 143.616 395.189 143.808 395.573 144.192C395.957 144.544 396.149 145.152 396.149 146.016C396.149 146.88 396.005 147.488 395.717 147.84C395.429 148.16 394.917 148.32 394.181 148.32ZM390.341 172.56L390.869 161.376C390.869 158.72 390.565 156.912 389.957 155.952C389.765 155.632 389.541 155.392 389.285 155.232C389.093 155.168 388.997 155.04 388.997 154.848C388.997 154.272 389.813 153.712 391.445 153.168C393.077 152.624 394.261 152.352 394.997 152.352C395.765 152.352 396.165 152.544 396.197 152.928C396.197 153.568 396.101 155.392 395.909 158.4C395.749 161.376 395.669 164.512 395.669 167.808C395.669 171.104 395.861 173.152 396.245 173.952C396.341 174.112 396.389 174.272 396.389 174.432C396.389 174.848 395.781 175.056 394.565 175.056C393.349 175.056 392.101 174.736 390.821 174.096C390.501 173.936 390.341 173.424 390.341 172.56ZM416.307 152.64C415.731 156.096 415.443 160.496 415.443 165.84C415.443 169.776 415.603 172.368 415.923 173.616L416.115 174.24C416.115 174.656 415.763 174.864 415.059 174.864C412.595 174.864 411.187 174.176 410.835 172.8C410.803 172.64 410.723 172.56 410.595 172.56C410.499 172.56 410.403 172.624 410.307 172.752C409.315 174.064 407.779 174.72 405.699 174.72C404.547 174.72 403.347 174.432 402.099 173.856C401.331 173.504 400.707 172.896 400.227 172.032C399.747 171.136 399.507 170.048 399.507 168.768L400.227 158.256C400.227 156.048 400.003 154.48 399.555 153.552C399.395 153.2 399.315 152.976 399.315 152.88C399.315 152.688 399.395 152.56 399.555 152.496C400.067 152.336 400.723 152.256 401.523 152.256C404.627 152.256 406.179 153.536 406.179 156.096C406.179 156.896 405.843 158.72 405.171 161.568C404.531 164.416 404.211 166.448 404.211 167.664C404.211 168.848 404.467 169.76 404.979 170.4C405.523 171.04 406.259 171.36 407.187 171.36C408.147 171.36 408.899 171.024 409.443 170.352C409.987 169.68 410.307 169.008 410.403 168.336L410.547 167.328C410.675 166.208 410.739 164.24 410.739 161.424C410.739 158.608 410.643 156.832 410.451 156.096C410.291 155.328 410.211 154.848 410.211 154.656C410.211 153.856 410.851 153.232 412.131 152.784C413.411 152.304 414.563 152.064 415.587 152.064C416.067 152.064 416.307 152.256 416.307 152.64ZM428.996 158.448C428.868 158.576 428.804 158.72 428.804 158.88C428.804 159.008 429.092 159.136 429.668 159.264C430.276 159.392 430.932 159.744 431.636 160.32C432.34 160.896 432.868 161.52 433.22 162.192C433.892 163.504 434.26 164.656 434.324 165.648L434.372 166.272C434.532 170.016 435.22 172.576 436.436 173.952C436.596 174.176 436.676 174.336 436.676 174.432C436.676 174.784 436.228 174.96 435.332 174.96C432.644 174.96 430.932 174.4 430.196 173.28C429.812 172.832 429.62 171.44 429.62 169.104V167.904C429.62 164.928 429.252 162.864 428.516 161.712C428.132 161.168 427.652 160.896 427.076 160.896C426.532 160.896 425.956 161.392 425.348 162.384C424.74 163.344 424.436 164.16 424.436 164.832C424.436 167.52 424.5 169.392 424.628 170.448C424.756 171.504 424.82 172.048 424.82 172.08C424.82 173.008 424.18 173.728 422.9 174.24C421.652 174.752 420.468 175.008 419.348 175.008C418.932 175.008 418.724 174.752 418.724 174.24V174.048C419.492 170.112 419.876 163.904 419.876 155.424C419.876 152.64 419.812 150.288 419.684 148.368L419.588 147.408C419.524 146.512 419.332 145.744 419.012 145.104C418.724 144.464 418.436 144.048 418.148 143.856L417.764 143.616C417.54 143.488 417.428 143.344 417.428 143.184C417.428 142.672 418.196 142.096 419.732 141.456C421.268 140.816 422.596 140.496 423.716 140.496C424.228 140.528 424.5 140.72 424.532 141.072C424.692 142.352 424.772 144.992 424.772 148.992C424.772 152.96 424.676 156.128 424.484 158.496C424.484 158.88 424.548 159.072 424.676 159.072C424.804 159.072 424.996 158.896 425.252 158.544C425.54 158.16 426.02 157.568 426.692 156.768C427.396 155.968 428.324 155.04 429.476 153.984C430.66 152.928 431.604 152.4 432.308 152.4C433.044 152.4 433.764 152.576 434.468 152.928C435.172 153.28 435.524 153.616 435.524 153.936L434.996 154.272C433.172 154.944 431.172 156.336 428.996 158.448Z" fill="#ECD0AE"/>
<path d="M198.8 222.56L198.848 217.712C198.848 213.92 198.664 211.776 198.296 211.28C198.12 211.056 198.032 210.904 198.032 210.824C198.032 210.728 198.136 210.624 198.344 210.512C198.568 210.384 198.992 210.248 199.616 210.104C200.24 209.96 200.792 209.888 201.272 209.888C201.752 209.888 201.992 210 201.992 210.224L201.944 210.536C201.752 212.264 201.656 213.952 201.656 215.6C201.656 217.248 201.704 219.088 201.8 221.12C201.896 223.152 201.944 224.648 201.944 225.608C201.944 226.904 201.44 228.016 200.432 228.944C199.44 229.888 198.256 230.4 196.88 230.48C196.608 230.448 196.472 230.352 196.472 230.192C196.472 230.08 196.512 229.992 196.592 229.928C196.656 229.864 196.736 229.784 196.832 229.688C196.928 229.592 197.104 229.344 197.36 228.944C197.616 228.544 197.84 228.088 198.032 227.576C198.224 227.08 198.4 226.384 198.56 225.488C198.72 224.592 198.8 223.616 198.8 222.56ZM212.146 216.32C211.858 218.048 211.714 220.248 211.714 222.92C211.714 224.888 211.794 226.184 211.954 226.808L212.05 227.12C212.05 227.328 211.874 227.432 211.522 227.432C210.29 227.432 209.586 227.088 209.41 226.4C209.394 226.32 209.354 226.28 209.29 226.28C209.242 226.28 209.194 226.312 209.146 226.376C208.65 227.032 207.882 227.36 206.842 227.36C206.266 227.36 205.666 227.216 205.042 226.928C204.658 226.752 204.346 226.448 204.106 226.016C203.866 225.568 203.746 225.024 203.746 224.384L204.106 219.128C204.106 218.024 203.994 217.24 203.77 216.776C203.69 216.6 203.65 216.488 203.65 216.44C203.65 216.344 203.69 216.28 203.77 216.248C204.026 216.168 204.354 216.128 204.754 216.128C206.306 216.128 207.082 216.768 207.082 218.048C207.082 218.448 206.914 219.36 206.578 220.784C206.258 222.208 206.098 223.224 206.098 223.832C206.098 224.424 206.226 224.88 206.482 225.2C206.754 225.52 207.122 225.68 207.586 225.68C208.066 225.68 208.442 225.512 208.714 225.176C208.986 224.84 209.146 224.504 209.194 224.168L209.266 223.664C209.33 223.104 209.362 222.12 209.362 220.712C209.362 219.304 209.314 218.416 209.218 218.048C209.138 217.664 209.098 217.424 209.098 217.328C209.098 216.928 209.418 216.616 210.058 216.392C210.698 216.152 211.274 216.032 211.786 216.032C212.026 216.032 212.146 216.128 212.146 216.32ZM213.306 227.168C213.594 225.44 213.738 223.368 213.738 220.952C213.738 218.536 213.666 216.968 213.522 216.248C213.522 216.04 213.762 215.936 214.242 215.936C214.978 215.936 215.466 216.216 215.706 216.776C215.722 216.824 215.762 216.848 215.826 216.848C215.89 216.848 215.938 216.832 215.97 216.8C216.466 216.288 217.234 216.032 218.274 216.032C219.314 216.032 220.138 216.296 220.746 216.824C221.354 217.352 221.658 218.12 221.658 219.128C221.658 219.736 221.602 220.6 221.49 221.72C221.394 222.84 221.346 223.672 221.346 224.216C221.346 225.512 221.562 226.448 221.994 227.024C222.058 227.104 222.09 227.184 222.09 227.264C222.09 227.472 221.866 227.576 221.418 227.576C219.434 227.576 218.442 226.696 218.442 224.936C218.442 224.264 218.594 223.328 218.898 222.128C219.202 220.928 219.354 220.016 219.354 219.392C219.354 218.112 218.826 217.472 217.77 217.472C217.258 217.472 216.866 217.624 216.594 217.928C216.338 218.232 216.194 218.584 216.162 218.984C216.13 219.368 216.114 220.104 216.114 221.192C216.114 222.856 216.17 224.304 216.282 225.536L216.33 226.064C216.33 226.512 216.034 226.856 215.442 227.096C214.866 227.352 214.362 227.48 213.93 227.48C213.514 227.48 213.306 227.376 213.306 227.168ZM225.364 214.16L224.788 214.136C224.356 214.136 224.076 214.24 223.948 214.448C223.916 214.496 223.876 214.52 223.828 214.52C223.62 214.52 223.516 214.168 223.516 213.464C223.516 212.744 223.62 212.288 223.828 212.096C224.052 211.904 224.428 211.808 224.956 211.808C225.5 211.808 225.868 211.904 226.06 212.096C226.252 212.272 226.348 212.576 226.348 213.008C226.348 213.44 226.276 213.744 226.132 213.92C225.988 214.08 225.732 214.16 225.364 214.16ZM223.444 226.28L223.708 220.688C223.708 219.36 223.556 218.456 223.252 217.976C223.156 217.816 223.044 217.696 222.916 217.616C222.82 217.584 222.772 217.52 222.772 217.424C222.772 217.136 223.18 216.856 223.996 216.584C224.812 216.312 225.404 216.176 225.772 216.176C226.156 216.176 226.356 216.272 226.372 216.464C226.372 216.784 226.324 217.696 226.228 219.2C226.148 220.688 226.108 222.256 226.108 223.904C226.108 225.552 226.204 226.576 226.396 226.976C226.444 227.056 226.468 227.136 226.468 227.216C226.468 227.424 226.164 227.528 225.556 227.528C224.948 227.528 224.324 227.368 223.684 227.048C223.524 226.968 223.444 226.712 223.444 226.28ZM230.213 217.952C229.797 217.968 229.493 217.984 229.301 218C229.125 218 229.037 217.952 229.037 217.856C229.037 217.76 229.085 217.664 229.181 217.568C230.205 216.624 231.933 216.152 234.365 216.152C235.197 216.152 235.853 216.224 236.333 216.368L236.573 216.44C236.765 216.52 236.861 216.608 236.861 216.704C236.861 216.784 236.805 216.848 236.693 216.896C236.261 217.024 235.845 217.232 235.445 217.52C235.045 217.792 234.845 217.984 234.845 218.096L234.989 218.264C235.501 218.552 235.893 219.008 236.165 219.632C236.453 220.256 236.613 220.808 236.645 221.288L236.693 222.032C236.693 223.616 236.253 224.92 235.373 225.944C234.493 226.968 233.293 227.48 231.773 227.48C231.005 227.48 230.341 227.344 229.781 227.072C229.221 226.8 228.805 226.496 228.533 226.16C228.277 225.808 228.069 225.416 227.909 224.984C227.717 224.392 227.621 223.784 227.621 223.16C227.621 222.52 227.725 221.88 227.933 221.24C228.157 220.6 228.405 220.128 228.677 219.824C228.965 219.52 229.285 219.272 229.637 219.08C230.085 218.84 230.445 218.72 230.717 218.72C230.989 218.72 231.125 218.776 231.125 218.888L230.981 219.128C230.629 219.544 230.373 220.088 230.213 220.76C230.069 221.432 229.997 222.032 229.997 222.56C229.997 223.072 230.061 223.584 230.189 224.096C230.317 224.608 230.461 224.992 230.621 225.248C230.781 225.488 230.965 225.672 231.173 225.8C231.477 225.992 231.797 226.088 232.133 226.088C232.469 226.088 232.797 225.96 233.117 225.704C233.437 225.432 233.669 225.08 233.813 224.648C234.101 223.848 234.245 223.024 234.245 222.176C234.245 220.832 233.901 219.792 233.213 219.056C232.541 218.32 231.541 217.952 230.213 217.952ZM245.024 220.568L245.12 221.408C245.12 221.712 244.832 221.864 244.256 221.864C243.088 221.864 242.504 221.424 242.504 220.544C242.504 220.336 242.56 220.048 242.672 219.68C242.784 219.312 242.84 218.992 242.84 218.72C242.84 218.448 242.76 218.216 242.6 218.024C242.44 217.816 242.208 217.712 241.904 217.712C241.6 217.712 241.336 217.824 241.112 218.048C240.904 218.256 240.776 218.472 240.728 218.696L240.632 219.032C240.536 219.528 240.488 220.36 240.488 221.528C240.488 222.68 240.504 223.592 240.536 224.264C240.568 224.92 240.6 225.376 240.632 225.632C240.664 225.872 240.68 226.016 240.68 226.064C240.68 226.464 240.432 226.784 239.936 227.024C239.44 227.28 238.944 227.408 238.448 227.408C237.952 227.408 237.704 227.304 237.704 227.096L237.824 226.352C238.048 224.96 238.16 223.144 238.16 220.904C238.16 218.664 238.08 217.144 237.92 216.344C237.92 216.152 238.088 216.056 238.424 216.056C239.288 216.056 239.864 216.352 240.152 216.944C240.168 217.008 240.192 217.04 240.224 217.04C240.272 217.04 240.384 216.968 240.56 216.824C241.088 216.392 241.712 216.176 242.432 216.176C242.88 216.176 243.328 216.264 243.776 216.44C244.688 216.808 245.144 217.576 245.144 218.744L245.024 220.568ZM251.556 222.68L251.7 218.432H250.092C249.964 218.432 249.9 218.384 249.9 218.288C249.9 218 250.036 217.672 250.308 217.304C250.58 216.92 250.876 216.728 251.196 216.728H251.7C251.668 215.48 251.636 214.584 251.604 214.04C251.54 213.064 251.38 212.312 251.124 211.784L251.004 211.544C250.94 211.464 250.908 211.368 250.908 211.256C250.908 211.144 250.996 211.048 251.172 210.968C251.348 210.888 251.604 210.792 251.94 210.68C252.292 210.568 253.028 210.424 254.148 210.248C255.268 210.056 256.484 209.96 257.796 209.96C259.124 209.96 259.844 210.056 259.956 210.248C260.084 210.44 260.148 210.744 260.148 211.16C260.148 211.56 260.092 211.76 259.98 211.76C259.964 211.76 259.908 211.752 259.812 211.736C259.556 211.672 259.164 211.64 258.636 211.64C258.108 211.64 257.54 211.688 256.932 211.784C256.324 211.88 255.86 211.976 255.54 212.072L255.084 212.24C254.956 212.272 254.86 212.384 254.796 212.576C254.668 213.52 254.604 214.904 254.604 216.728H258.492C258.636 216.728 258.708 216.776 258.708 216.872C258.708 217.16 258.58 217.496 258.324 217.88C258.068 218.264 257.78 218.456 257.46 218.456L254.604 218.432L254.772 225.632C254.772 225.984 254.716 226.24 254.604 226.4C254.3 226.8 253.78 227.096 253.044 227.288C252.324 227.496 251.724 227.6 251.244 227.6C251.116 227.6 251.052 227.52 251.052 227.36C251.052 227.28 251.06 227.216 251.076 227.168C251.268 226.896 251.428 225.4 251.556 222.68ZM266.915 220.568L267.011 221.408C267.011 221.712 266.723 221.864 266.147 221.864C264.979 221.864 264.395 221.424 264.395 220.544C264.395 220.336 264.451 220.048 264.563 219.68C264.675 219.312 264.731 218.992 264.731 218.72C264.731 218.448 264.651 218.216 264.491 218.024C264.331 217.816 264.099 217.712 263.795 217.712C263.491 217.712 263.227 217.824 263.003 218.048C262.795 218.256 262.667 218.472 262.619 218.696L262.523 219.032C262.427 219.528 262.379 220.36 262.379 221.528C262.379 222.68 262.395 223.592 262.427 224.264C262.459 224.92 262.491 225.376 262.523 225.632C262.555 225.872 262.571 226.016 262.571 226.064C262.571 226.464 262.323 226.784 261.827 227.024C261.331 227.28 260.835 227.408 260.339 227.408C259.843 227.408 259.595 227.304 259.595 227.096L259.715 226.352C259.939 224.96 260.051 223.144 260.051 220.904C260.051 218.664 259.971 217.144 259.811 216.344C259.811 216.152 259.979 216.056 260.315 216.056C261.179 216.056 261.755 216.352 262.043 216.944C262.059 217.008 262.083 217.04 262.115 217.04C262.163 217.04 262.275 216.968 262.451 216.824C262.979 216.392 263.603 216.176 264.323 216.176C264.771 216.176 265.219 216.264 265.667 216.44C266.579 216.808 267.035 217.576 267.035 218.744L266.915 220.568ZM269.869 217.952C269.453 217.968 269.149 217.984 268.957 218C268.781 218 268.693 217.952 268.693 217.856C268.693 217.76 268.741 217.664 268.837 217.568C269.861 216.624 271.589 216.152 274.021 216.152C274.853 216.152 275.509 216.224 275.989 216.368L276.229 216.44C276.421 216.52 276.517 216.608 276.517 216.704C276.517 216.784 276.461 216.848 276.349 216.896C275.917 217.024 275.501 217.232 275.101 217.52C274.701 217.792 274.501 217.984 274.501 218.096L274.645 218.264C275.157 218.552 275.549 219.008 275.821 219.632C276.109 220.256 276.269 220.808 276.301 221.288L276.349 222.032C276.349 223.616 275.909 224.92 275.029 225.944C274.149 226.968 272.949 227.48 271.429 227.48C270.661 227.48 269.997 227.344 269.437 227.072C268.877 226.8 268.461 226.496 268.189 226.16C267.933 225.808 267.725 225.416 267.565 224.984C267.373 224.392 267.277 223.784 267.277 223.16C267.277 222.52 267.381 221.88 267.589 221.24C267.813 220.6 268.061 220.128 268.333 219.824C268.621 219.52 268.941 219.272 269.293 219.08C269.741 218.84 270.101 218.72 270.373 218.72C270.645 218.72 270.781 218.776 270.781 218.888L270.637 219.128C270.285 219.544 270.029 220.088 269.869 220.76C269.725 221.432 269.653 222.032 269.653 222.56C269.653 223.072 269.717 223.584 269.845 224.096C269.973 224.608 270.117 224.992 270.277 225.248C270.437 225.488 270.621 225.672 270.829 225.8C271.133 225.992 271.453 226.088 271.789 226.088C272.125 226.088 272.453 225.96 272.773 225.704C273.093 225.432 273.325 225.08 273.469 224.648C273.757 223.848 273.901 223.024 273.901 222.176C273.901 220.832 273.557 219.792 272.869 219.056C272.197 218.32 271.197 217.952 269.869 217.952ZM277.525 227.168C277.813 225.44 277.957 223.368 277.957 220.952C277.957 218.536 277.885 216.968 277.741 216.248C277.741 216.04 277.981 215.936 278.461 215.936C279.197 215.936 279.685 216.216 279.925 216.776C279.941 216.824 279.981 216.848 280.045 216.848C280.109 216.848 280.157 216.832 280.189 216.8C280.685 216.288 281.453 216.032 282.493 216.032C283.533 216.032 284.357 216.296 284.965 216.824C285.573 217.352 285.877 218.12 285.877 219.128C285.877 219.736 285.821 220.6 285.709 221.72C285.613 222.84 285.565 223.672 285.565 224.216C285.565 225.512 285.781 226.448 286.213 227.024C286.277 227.104 286.309 227.184 286.309 227.264C286.309 227.472 286.085 227.576 285.637 227.576C283.653 227.576 282.661 226.696 282.661 224.936C282.661 224.264 282.813 223.328 283.117 222.128C283.421 220.928 283.573 220.016 283.573 219.392C283.573 218.112 283.045 217.472 281.989 217.472C281.477 217.472 281.085 217.624 280.813 217.928C280.557 218.232 280.413 218.584 280.381 218.984C280.349 219.368 280.333 220.104 280.333 221.192C280.333 222.856 280.389 224.304 280.501 225.536L280.549 226.064C280.549 226.512 280.253 226.856 279.661 227.096C279.085 227.352 278.581 227.48 278.149 227.48C277.733 227.48 277.525 227.376 277.525 227.168ZM286.751 217.64L286.823 216.68C286.839 216.536 286.951 216.464 287.159 216.464H287.999L287.903 214.544V214.448C287.903 214.08 288.183 213.728 288.743 213.392C289.303 213.056 289.815 212.888 290.279 212.888C290.423 212.888 290.495 212.952 290.495 213.08V213.104C290.431 213.536 290.367 214.648 290.303 216.44C291.007 216.44 291.455 216.424 291.647 216.392C291.839 216.36 291.943 216.344 291.959 216.344C292.071 216.344 292.127 216.44 292.127 216.632C292.127 216.824 292.039 217.072 291.863 217.376C291.687 217.664 291.495 217.816 291.287 217.832H290.279C290.263 218.376 290.255 219.296 290.255 220.592C290.255 221.872 290.263 222.928 290.279 223.76C290.311 224.592 290.343 225.224 290.375 225.656C290.407 226.072 290.439 226.408 290.471 226.664C290.519 226.92 290.551 227.104 290.567 227.216C290.599 227.328 290.615 227.4 290.615 227.432C290.615 227.592 290.511 227.68 290.303 227.696C289.679 227.696 289.055 227.608 288.431 227.432C287.823 227.256 287.519 226.952 287.519 226.52C287.855 223.832 288.023 220.944 288.023 217.856C287.591 217.856 287.263 217.872 287.039 217.904H287.015C286.871 217.904 286.783 217.816 286.751 217.64ZM294.523 220.904L294.547 221.504C294.547 221.6 294.611 221.648 294.739 221.648C295.251 221.6 295.699 221.472 296.083 221.264C296.467 221.04 296.755 220.792 296.947 220.52C297.331 219.928 297.539 219.416 297.571 218.984L297.595 218.696C297.595 217.832 297.251 217.4 296.563 217.4C296.051 217.4 295.635 217.624 295.315 218.072C294.787 218.776 294.523 219.72 294.523 220.904ZM299.755 224.096C299.755 224.704 299.627 225.24 299.371 225.704C299.131 226.152 298.851 226.488 298.531 226.712C298.227 226.92 297.867 227.088 297.451 227.216C296.923 227.376 296.419 227.456 295.939 227.456C294.595 227.456 293.603 226.952 292.963 225.944C292.323 224.936 292.003 223.656 292.003 222.104C292.003 220.536 292.395 219.144 293.179 217.928C293.979 216.712 295.171 216.104 296.755 216.104C298.195 216.104 299.171 216.608 299.683 217.616C299.891 218 299.995 218.368 299.995 218.72C299.995 219.056 299.979 219.328 299.947 219.536C299.915 219.728 299.803 220.024 299.611 220.424C299.419 220.824 299.163 221.184 298.843 221.504C298.523 221.824 298.019 222.128 297.331 222.416C296.643 222.704 295.835 222.896 294.907 222.992C294.779 222.992 294.715 223.048 294.715 223.16C294.715 223.304 294.763 223.52 294.859 223.808C294.971 224.08 295.091 224.312 295.219 224.504C295.571 224.952 296.091 225.176 296.779 225.176C297.467 225.176 298.051 224.952 298.531 224.504C298.787 224.264 298.995 223.968 299.155 223.616C299.219 223.488 299.299 223.424 299.395 223.424C299.507 223.424 299.595 223.512 299.659 223.688C299.723 223.864 299.755 224 299.755 224.096ZM301.079 227.168C301.367 225.44 301.511 223.368 301.511 220.952C301.511 218.536 301.439 216.968 301.295 216.248C301.295 216.04 301.535 215.936 302.015 215.936C302.751 215.936 303.239 216.216 303.479 216.776C303.495 216.824 303.535 216.848 303.599 216.848C303.663 216.848 303.711 216.832 303.743 216.8C304.239 216.288 305.007 216.032 306.047 216.032C307.087 216.032 307.911 216.296 308.519 216.824C309.127 217.352 309.431 218.12 309.431 219.128C309.431 219.736 309.375 220.6 309.263 221.72C309.167 222.84 309.119 223.672 309.119 224.216C309.119 225.512 309.335 226.448 309.767 227.024C309.831 227.104 309.863 227.184 309.863 227.264C309.863 227.472 309.639 227.576 309.191 227.576C307.207 227.576 306.215 226.696 306.215 224.936C306.215 224.264 306.367 223.328 306.671 222.128C306.975 220.928 307.127 220.016 307.127 219.392C307.127 218.112 306.599 217.472 305.543 217.472C305.031 217.472 304.639 217.624 304.367 217.928C304.111 218.232 303.967 218.584 303.935 218.984C303.903 219.368 303.887 220.104 303.887 221.192C303.887 222.856 303.943 224.304 304.055 225.536L304.103 226.064C304.103 226.512 303.807 226.856 303.215 227.096C302.639 227.352 302.135 227.48 301.703 227.48C301.287 227.48 301.079 227.376 301.079 227.168ZM315.465 216.224C315.753 216.224 316.009 216.264 316.233 216.344C316.473 216.408 316.601 216.44 316.617 216.44L316.761 216.32L316.665 213.704C316.633 213.256 316.537 212.872 316.377 212.552C316.217 212.232 316.073 212.024 315.945 211.928L315.729 211.808C315.633 211.744 315.585 211.672 315.585 211.592C315.585 211.352 315.953 211.072 316.689 210.752C317.441 210.432 318.025 210.272 318.441 210.272C318.857 210.272 319.081 210.36 319.113 210.536C319.193 211.08 319.233 212.12 319.233 213.656C319.233 215.176 319.193 216.672 319.113 218.144C319.049 219.616 319.017 221.288 319.017 223.16C319.017 225.016 319.137 226.184 319.377 226.664C319.441 226.776 319.473 226.88 319.473 226.976C319.473 227.216 319.129 227.336 318.441 227.336C317.129 227.336 316.473 227.024 316.473 226.4C316.441 226.144 316.425 225.752 316.425 225.224C316.425 224.68 316.473 223.68 316.569 222.224C316.681 220.752 316.737 219.624 316.737 218.84C316.737 218.04 316.337 217.64 315.537 217.64C314.753 217.64 314.153 218.104 313.737 219.032C313.321 219.96 313.113 220.888 313.113 221.816C313.113 223.784 313.609 224.768 314.601 224.768C314.745 224.768 314.881 224.744 315.009 224.696C315.153 224.632 315.241 224.6 315.273 224.6C315.401 224.6 315.497 224.68 315.561 224.84C315.641 225 315.681 225.16 315.681 225.32C315.681 225.864 315.465 226.328 315.033 226.712C314.601 227.08 314.073 227.264 313.449 227.264C312.489 227.264 311.761 226.848 311.265 226.016C310.785 225.168 310.545 224.12 310.545 222.872C310.545 221.288 310.921 219.816 311.673 218.456C312.057 217.784 312.577 217.248 313.233 216.848C313.889 216.432 314.633 216.224 315.465 216.224ZM329.668 216.224C329.956 216.224 330.212 216.264 330.436 216.344C330.676 216.408 330.804 216.44 330.82 216.44L330.964 216.32L330.868 213.704C330.836 213.256 330.74 212.872 330.58 212.552C330.42 212.232 330.276 212.024 330.148 211.928L329.932 211.808C329.836 211.744 329.788 211.672 329.788 211.592C329.788 211.352 330.156 211.072 330.892 210.752C331.644 210.432 332.228 210.272 332.644 210.272C333.06 210.272 333.284 210.36 333.316 210.536C333.396 211.08 333.436 212.12 333.436 213.656C333.436 215.176 333.396 216.672 333.316 218.144C333.252 219.616 333.22 221.288 333.22 223.16C333.22 225.016 333.34 226.184 333.58 226.664C333.644 226.776 333.676 226.88 333.676 226.976C333.676 227.216 333.332 227.336 332.644 227.336C331.332 227.336 330.676 227.024 330.676 226.4C330.644 226.144 330.628 225.752 330.628 225.224C330.628 224.68 330.676 223.68 330.772 222.224C330.884 220.752 330.94 219.624 330.94 218.84C330.94 218.04 330.54 217.64 329.74 217.64C328.956 217.64 328.356 218.104 327.94 219.032C327.524 219.96 327.316 220.888 327.316 221.816C327.316 223.784 327.812 224.768 328.804 224.768C328.948 224.768 329.084 224.744 329.212 224.696C329.356 224.632 329.444 224.6 329.476 224.6C329.604 224.6 329.7 224.68 329.764 224.84C329.844 225 329.884 225.16 329.884 225.32C329.884 225.864 329.668 226.328 329.236 226.712C328.804 227.08 328.276 227.264 327.652 227.264C326.692 227.264 325.964 226.848 325.468 226.016C324.988 225.168 324.748 224.12 324.748 222.872C324.748 221.288 325.124 219.816 325.876 218.456C326.26 217.784 326.78 217.248 327.436 216.848C328.092 216.432 328.836 216.224 329.668 216.224ZM337.039 220.904L337.063 221.504C337.063 221.6 337.127 221.648 337.255 221.648C337.767 221.6 338.215 221.472 338.599 221.264C338.983 221.04 339.271 220.792 339.463 220.52C339.847 219.928 340.055 219.416 340.087 218.984L340.111 218.696C340.111 217.832 339.767 217.4 339.079 217.4C338.567 217.4 338.151 217.624 337.831 218.072C337.303 218.776 337.039 219.72 337.039 220.904ZM342.271 224.096C342.271 224.704 342.143 225.24 341.887 225.704C341.647 226.152 341.367 226.488 341.047 226.712C340.743 226.92 340.383 227.088 339.967 227.216C339.439 227.376 338.935 227.456 338.455 227.456C337.111 227.456 336.119 226.952 335.479 225.944C334.839 224.936 334.519 223.656 334.519 222.104C334.519 220.536 334.911 219.144 335.695 217.928C336.495 216.712 337.687 216.104 339.271 216.104C340.711 216.104 341.687 216.608 342.199 217.616C342.407 218 342.511 218.368 342.511 218.72C342.511 219.056 342.495 219.328 342.463 219.536C342.431 219.728 342.319 220.024 342.127 220.424C341.935 220.824 341.679 221.184 341.359 221.504C341.039 221.824 340.535 222.128 339.847 222.416C339.159 222.704 338.351 222.896 337.423 222.992C337.295 222.992 337.231 223.048 337.231 223.16C337.231 223.304 337.279 223.52 337.375 223.808C337.487 224.08 337.607 224.312 337.735 224.504C338.087 224.952 338.607 225.176 339.295 225.176C339.983 225.176 340.567 224.952 341.047 224.504C341.303 224.264 341.511 223.968 341.671 223.616C341.735 223.488 341.815 223.424 341.911 223.424C342.023 223.424 342.111 223.512 342.175 223.688C342.239 223.864 342.271 224 342.271 224.096ZM348.995 216.632C349.683 216.296 350.363 216.128 351.035 216.128C351.707 216.128 352.043 216.824 352.043 218.216C352.043 219.24 351.851 220.28 351.467 221.336C351.099 222.392 350.635 223.32 350.075 224.12C348.923 225.8 347.883 226.92 346.955 227.48C346.731 227.608 346.563 227.672 346.451 227.672C346.339 227.672 346.219 227.552 346.091 227.312C345.979 227.072 345.795 226.544 345.539 225.728C345.299 224.912 345.099 224.184 344.939 223.544L344.723 222.56C344.403 221.152 344.091 220.032 343.787 219.2C343.483 218.352 343.259 217.864 343.115 217.736L342.875 217.52C342.715 217.44 342.635 217.344 342.635 217.232L342.755 217.016C342.963 216.824 343.307 216.632 343.787 216.44C344.283 216.232 344.827 216.128 345.419 216.128C345.691 216.128 345.859 216.28 345.923 216.584C346.163 217.32 346.371 218.184 346.547 219.176C346.723 220.168 346.955 221.288 347.243 222.536C347.547 223.784 347.795 224.416 347.987 224.432C348.083 224.432 348.187 224.36 348.299 224.216C348.427 224.072 348.571 223.88 348.731 223.64C348.907 223.4 349.115 222.936 349.355 222.248C349.611 221.56 349.739 220.976 349.739 220.496C349.739 220 349.715 219.624 349.667 219.368C349.635 219.096 349.499 218.784 349.259 218.432C349.019 218.08 348.747 217.88 348.443 217.832C348.139 217.768 347.987 217.664 347.987 217.52C347.987 217.264 348.323 216.968 348.995 216.632ZM355.156 220.904L355.18 221.504C355.18 221.6 355.244 221.648 355.372 221.648C355.884 221.6 356.332 221.472 356.716 221.264C357.1 221.04 357.388 220.792 357.58 220.52C357.964 219.928 358.172 219.416 358.204 218.984L358.228 218.696C358.228 217.832 357.884 217.4 357.196 217.4C356.684 217.4 356.268 217.624 355.948 218.072C355.42 218.776 355.156 219.72 355.156 220.904ZM360.388 224.096C360.388 224.704 360.26 225.24 360.004 225.704C359.764 226.152 359.484 226.488 359.164 226.712C358.86 226.92 358.5 227.088 358.084 227.216C357.556 227.376 357.052 227.456 356.572 227.456C355.228 227.456 354.236 226.952 353.596 225.944C352.956 224.936 352.636 223.656 352.636 222.104C352.636 220.536 353.028 219.144 353.812 217.928C354.612 216.712 355.804 216.104 357.388 216.104C358.828 216.104 359.804 216.608 360.316 217.616C360.524 218 360.628 218.368 360.628 218.72C360.628 219.056 360.612 219.328 360.58 219.536C360.548 219.728 360.436 220.024 360.244 220.424C360.052 220.824 359.796 221.184 359.476 221.504C359.156 221.824 358.652 222.128 357.964 222.416C357.276 222.704 356.468 222.896 355.54 222.992C355.412 222.992 355.348 223.048 355.348 223.16C355.348 223.304 355.396 223.52 355.492 223.808C355.604 224.08 355.724 224.312 355.852 224.504C356.204 224.952 356.724 225.176 357.412 225.176C358.1 225.176 358.684 224.952 359.164 224.504C359.42 224.264 359.628 223.968 359.788 223.616C359.852 223.488 359.932 223.424 360.028 223.424C360.14 223.424 360.228 223.512 360.292 223.688C360.356 223.864 360.388 224 360.388 224.096ZM364.718 213.272L364.574 222.08C364.574 224.832 364.662 226.48 364.838 227.024C364.886 227.12 364.91 227.216 364.91 227.312C364.91 227.504 364.678 227.6 364.214 227.6C363.75 227.6 363.23 227.48 362.654 227.24C362.094 227.016 361.814 226.72 361.814 226.352C362.134 224.112 362.294 221.12 362.294 217.376L362.198 213.704C362.166 213.256 362.07 212.872 361.91 212.552C361.766 212.232 361.622 212.024 361.478 211.928L361.286 211.808C361.174 211.744 361.118 211.672 361.118 211.592C361.118 211.368 361.462 211.096 362.15 210.776C362.854 210.44 363.534 210.272 364.19 210.272C364.446 210.272 364.59 210.36 364.622 210.536C364.686 210.952 364.718 211.864 364.718 213.272ZM368.705 217.952C368.289 217.968 367.985 217.984 367.793 218C367.617 218 367.529 217.952 367.529 217.856C367.529 217.76 367.577 217.664 367.673 217.568C368.697 216.624 370.425 216.152 372.857 216.152C373.689 216.152 374.345 216.224 374.825 216.368L375.065 216.44C375.257 216.52 375.353 216.608 375.353 216.704C375.353 216.784 375.297 216.848 375.185 216.896C374.753 217.024 374.337 217.232 373.937 217.52C373.537 217.792 373.337 217.984 373.337 218.096L373.481 218.264C373.993 218.552 374.385 219.008 374.657 219.632C374.945 220.256 375.105 220.808 375.137 221.288L375.185 222.032C375.185 223.616 374.745 224.92 373.865 225.944C372.985 226.968 371.785 227.48 370.265 227.48C369.497 227.48 368.833 227.344 368.273 227.072C367.713 226.8 367.297 226.496 367.025 226.16C366.769 225.808 366.561 225.416 366.401 224.984C366.209 224.392 366.113 223.784 366.113 223.16C366.113 222.52 366.217 221.88 366.425 221.24C366.649 220.6 366.897 220.128 367.169 219.824C367.457 219.52 367.777 219.272 368.129 219.08C368.577 218.84 368.937 218.72 369.209 218.72C369.481 218.72 369.617 218.776 369.617 218.888L369.473 219.128C369.121 219.544 368.865 220.088 368.705 220.76C368.561 221.432 368.489 222.032 368.489 222.56C368.489 223.072 368.553 223.584 368.681 224.096C368.809 224.608 368.953 224.992 369.113 225.248C369.273 225.488 369.457 225.672 369.665 225.8C369.969 225.992 370.289 226.088 370.625 226.088C370.961 226.088 371.289 225.96 371.609 225.704C371.929 225.432 372.161 225.08 372.305 224.648C372.593 223.848 372.737 223.024 372.737 222.176C372.737 220.832 372.393 219.792 371.705 219.056C371.033 218.32 370.033 217.952 368.705 217.952ZM376.39 223.328C376.422 221.712 376.438 220.384 376.438 219.344C376.438 218.304 376.366 217.312 376.222 216.368C376.222 216.208 376.382 216.128 376.702 216.128C377.022 216.128 377.294 216.168 377.518 216.248C377.758 216.328 377.926 216.416 378.022 216.512C378.278 216.768 378.422 216.896 378.454 216.896C378.502 216.896 378.63 216.824 378.838 216.68C379.462 216.28 380.15 216.08 380.902 216.08C381.67 216.08 382.334 216.272 382.894 216.656C383.47 217.04 383.878 217.544 384.118 218.168C384.55 219.24 384.766 220.376 384.766 221.576C384.766 222.76 384.55 223.944 384.118 225.128C383.878 225.768 383.526 226.296 383.062 226.712C382.598 227.112 382.054 227.312 381.43 227.312C380.198 227.312 379.582 226.6 379.582 225.176C379.582 224.792 379.662 224.6 379.822 224.6C379.854 224.6 379.942 224.64 380.086 224.72C380.246 224.784 380.398 224.816 380.542 224.816C381.678 224.816 382.246 223.616 382.246 221.216C382.246 218.8 381.638 217.592 380.422 217.592C380.086 217.592 379.798 217.672 379.558 217.832C379.334 217.976 379.19 218.12 379.126 218.264L379.03 218.504C378.806 219.944 378.694 222.72 378.694 226.832C378.694 228.688 378.726 230.016 378.79 230.816C378.87 231.632 378.91 232.12 378.91 232.28C378.91 232.44 378.862 232.584 378.766 232.712C378.446 233.128 378.014 233.496 377.47 233.816C376.926 234.152 376.446 234.32 376.03 234.32C375.87 234.32 375.79 234.216 375.79 234.008C376.046 232.392 376.246 228.832 376.39 223.328ZM388.227 220.904L388.251 221.504C388.251 221.6 388.315 221.648 388.443 221.648C388.955 221.6 389.403 221.472 389.787 221.264C390.171 221.04 390.459 220.792 390.651 220.52C391.035 219.928 391.243 219.416 391.275 218.984L391.299 218.696C391.299 217.832 390.955 217.4 390.267 217.4C389.755 217.4 389.339 217.624 389.019 218.072C388.491 218.776 388.227 219.72 388.227 220.904ZM393.459 224.096C393.459 224.704 393.331 225.24 393.075 225.704C392.835 226.152 392.555 226.488 392.235 226.712C391.931 226.92 391.571 227.088 391.155 227.216C390.627 227.376 390.123 227.456 389.643 227.456C388.299 227.456 387.307 226.952 386.667 225.944C386.027 224.936 385.707 223.656 385.707 222.104C385.707 220.536 386.099 219.144 386.883 217.928C387.683 216.712 388.875 216.104 390.459 216.104C391.899 216.104 392.875 216.608 393.387 217.616C393.595 218 393.699 218.368 393.699 218.72C393.699 219.056 393.683 219.328 393.651 219.536C393.619 219.728 393.507 220.024 393.315 220.424C393.123 220.824 392.867 221.184 392.547 221.504C392.227 221.824 391.723 222.128 391.035 222.416C390.347 222.704 389.539 222.896 388.611 222.992C388.483 222.992 388.419 223.048 388.419 223.16C388.419 223.304 388.467 223.52 388.563 223.808C388.675 224.08 388.795 224.312 388.923 224.504C389.275 224.952 389.795 225.176 390.483 225.176C391.171 225.176 391.755 224.952 392.235 224.504C392.491 224.264 392.699 223.968 392.859 223.616C392.923 223.488 393.003 223.424 393.099 223.424C393.211 223.424 393.299 223.512 393.363 223.688C393.427 223.864 393.459 224 393.459 224.096ZM401.868 220.568L401.964 221.408C401.964 221.712 401.676 221.864 401.1 221.864C399.932 221.864 399.348 221.424 399.348 220.544C399.348 220.336 399.404 220.048 399.516 219.68C399.628 219.312 399.684 218.992 399.684 218.72C399.684 218.448 399.604 218.216 399.444 218.024C399.284 217.816 399.052 217.712 398.748 217.712C398.444 217.712 398.18 217.824 397.956 218.048C397.748 218.256 397.62 218.472 397.572 218.696L397.476 219.032C397.38 219.528 397.332 220.36 397.332 221.528C397.332 222.68 397.348 223.592 397.38 224.264C397.412 224.92 397.444 225.376 397.476 225.632C397.508 225.872 397.524 226.016 397.524 226.064C397.524 226.464 397.276 226.784 396.78 227.024C396.284 227.28 395.788 227.408 395.292 227.408C394.796 227.408 394.548 227.304 394.548 227.096L394.668 226.352C394.892 224.96 395.004 223.144 395.004 220.904C395.004 218.664 394.924 217.144 394.764 216.344C394.764 216.152 394.932 216.056 395.268 216.056C396.132 216.056 396.708 216.352 396.996 216.944C397.012 217.008 397.036 217.04 397.068 217.04C397.116 217.04 397.228 216.968 397.404 216.824C397.932 216.392 398.556 216.176 399.276 216.176C399.724 216.176 400.172 216.264 400.62 216.44C401.532 216.808 401.988 217.576 401.988 218.744L401.868 220.568Z" fill="#CA8263"/>
<circle cx="295.5" cy="76.5" r="34" stroke="#BD6248" stroke-width="7"/>
<path d="M286.696 61.752C285.8 61.752 284.605 61.0987 283.112 59.792C283.149 60.352 283.168 60.9307 283.168 61.528C283.168 64.5147 282.571 68.1547 281.376 72.448C280.181 76.7413 278.371 80.6987 275.944 84.32C273.555 87.9413 271.109 89.752 268.608 89.752C266.517 89.752 264.707 88.9307 263.176 87.288C261.683 85.6453 260.544 83.4987 259.76 80.848C258.341 75.808 257.632 70.376 257.632 64.552C255.056 71.3093 252.592 76.872 250.24 81.24C246.283 88.2587 242.475 92.328 238.816 93.448C237.883 93.7467 237.043 93.896 236.296 93.896C235.549 93.896 234.896 93.8213 234.336 93.672C232.805 93.1493 231.853 92.104 231.48 90.536C231.443 90.3493 231.424 90.1813 231.424 90.032C231.424 89.8827 231.443 89.696 231.48 89.472C231.517 89.248 231.629 89.1733 231.816 89.248C232.003 89.36 232.189 89.7147 232.376 90.312C232.637 91.32 233.291 91.9547 234.336 92.216C234.971 92.4027 235.587 92.496 236.184 92.496C236.781 92.496 237.36 92.4027 237.92 92.216C241.504 91.096 245.051 87.344 248.56 80.96C250.987 76.2933 253.451 69.7227 255.952 61.248C253.899 63.1147 251.472 64.1413 248.672 64.328C248.299 64.3653 248.093 64.2347 248.056 63.936C248.056 63.6373 248.28 63.4507 248.728 63.376C250.333 63.2267 251.995 62.3867 253.712 60.856C255.429 59.3253 256.717 57.5707 257.576 55.592C257.725 55.1067 258.379 54.8827 259.536 54.92C260.693 54.92 261.253 55.144 261.216 55.592C261.067 56.0027 260.899 56.992 260.712 58.56C260.525 60.128 260.432 61.6773 260.432 63.208C260.432 69.7787 261.459 75.9573 263.512 81.744C264.968 85.8133 266.816 87.848 269.056 87.848C271.296 87.848 273.387 85.888 275.328 81.968C277.269 78.048 278.595 74.1653 279.304 70.32C280.051 66.4747 280.424 63.7867 280.424 62.256C280.424 60.688 280.349 59.5307 280.2 58.784C280.051 58 279.547 56.3573 278.688 53.856C278.651 53.744 278.781 53.5573 279.08 53.296C279.379 52.9973 279.603 52.8293 279.752 52.792C280.461 52.792 281.115 53.2213 281.712 54.08C282.347 54.9387 282.981 55.9467 283.616 57.104C284.699 59.1947 285.707 60.24 286.64 60.24L287.312 60.072C287.648 60.072 287.853 60.2587 287.928 60.632C287.928 60.9307 287.797 61.192 287.536 61.416C287.275 61.6027 286.995 61.7147 286.696 61.752ZM293.649 83.536V84.488C293.649 84.7493 293.443 85.1787 293.033 85.776C292.622 86.3733 292.305 86.672 292.081 86.672C290.849 86.672 290.233 86.3733 290.233 85.776C290.233 85.4773 290.606 85.0293 291.353 84.432C292.398 83.6107 293.033 83.2 293.257 83.2C293.518 83.2 293.649 83.312 293.649 83.536Z" fill="#ECD0AE"/>
<path d="M306.224 80.112C303.344 85.52 300.624 88.224 298.064 88.224C296.432 88.224 295.616 87.392 295.616 85.728C295.616 84.736 296 83.632 296.768 82.416C298.08 80.368 300.112 77.856 302.864 74.88C305.648 71.872 308 69.488 309.92 67.728L311.744 61.536C310.144 63.04 308.064 63.92 305.504 64.176C305.184 64.208 305.008 64.112 304.976 63.888C304.976 63.664 305.12 63.52 305.408 63.456L305.6 63.408C306.976 63.28 308.384 62.56 309.824 61.248C311.296 59.936 312.4 58.432 313.136 56.736C313.264 56.32 313.824 56.128 314.816 56.16C315.808 56.16 316.288 56.352 316.256 56.736L312.944 64.944C317.296 61.264 320.416 59.376 322.304 59.28C322.528 59.28 322.752 59.28 322.976 59.28C325.504 59.28 327.248 60.112 328.208 61.776C329.04 63.184 329.456 64.832 329.456 66.72C329.456 69.536 328.592 73.568 326.864 78.816C326.576 79.744 326.448 80.224 326.48 80.256C326.544 80.256 326.64 80.16 326.768 79.968C326.896 79.744 327.088 79.424 327.344 79.008C327.632 78.592 328.288 77.536 329.312 75.84C332.992 69.664 336.736 64.512 340.544 60.384C341.792 59.072 343.04 58.416 344.288 58.416C345.024 58.416 345.584 58.672 345.968 59.184C346.352 59.696 346.544 60.256 346.544 60.864C346.544 61.472 346.4 62.32 346.112 63.408C345.856 64.496 345.04 66.768 343.664 70.224C341.968 74.448 341.12 77.904 341.12 80.592C341.12 82.672 341.696 83.712 342.848 83.712C343.68 83.712 344.784 83.184 346.16 82.128C348.272 80.368 349.968 78.624 351.248 76.896C351.408 76.672 351.552 76.624 351.68 76.752C351.84 76.88 351.92 76.992 351.92 77.088C351.92 77.152 351.888 77.216 351.824 77.28C351.216 78.24 350.256 79.392 348.944 80.736C346.8 83.008 345.072 84.352 343.76 84.768C343.12 84.992 342.496 85.104 341.888 85.104C339.776 85.072 338.72 83.552 338.72 80.544C338.72 78.976 338.912 77.456 339.296 75.984C339.68 74.512 339.984 73.376 340.208 72.576C340.464 71.776 340.784 70.848 341.168 69.792C341.552 68.704 341.872 67.872 342.128 67.296C342.96 65.216 343.472 63.92 343.664 63.408C343.856 62.896 343.952 62.464 343.952 62.112C343.952 61.728 343.856 61.472 343.664 61.344C343.472 61.184 343.216 61.104 342.896 61.104C342.576 61.104 342.08 61.392 341.408 61.968C338.944 64.08 336.16 67.408 333.056 71.952C329.984 76.496 327.824 80.064 326.576 82.656C326.32 83.2 326.064 83.472 325.808 83.472C325.552 83.472 325.28 83.248 324.992 82.8C324.704 82.32 324.56 81.984 324.56 81.792C324.56 81.568 324.576 81.424 324.608 81.36C325.44 79.248 326.032 76.992 326.384 74.592C326.768 72.192 326.96 70.224 326.96 68.688C326.96 63.28 325.792 60.576 323.456 60.576C321.28 60.576 317.328 63.2 311.6 68.448C311.312 69.28 310.688 70.784 309.728 72.96C308.416 75.808 307.248 78.192 306.224 80.112ZM298.208 86.592C300.192 86.592 302.624 83.824 305.504 78.288C307.104 75.216 308.256 72.72 308.96 70.8C307.264 72.4 305.392 74.368 303.344 76.704C301.296 79.008 299.84 80.736 298.976 81.888C297.856 83.392 297.296 84.544 297.296 85.344C297.296 86.176 297.6 86.592 298.208 86.592ZM356.034 81.888V82.704C356.034 82.928 355.858 83.296 355.506 83.808C355.154 84.32 354.882 84.576 354.69 84.576C353.634 84.576 353.106 84.32 353.106 83.808C353.106 83.552 353.426 83.168 354.066 82.656C354.962 81.952 355.506 81.6 355.698 81.6C355.922 81.6 356.034 81.696 356.034 81.888Z" fill="#963630"/>
<path d="M272.972 258.998L272.882 255.596C272.882 255.056 272.822 254.63 272.702 254.318C272.582 254.006 272.522 253.838 272.522 253.814C272.522 253.55 272.924 253.346 273.728 253.202C274.544 253.058 275.162 252.986 275.582 252.986C276.014 252.986 276.248 253.088 276.284 253.292C277.04 256.664 277.676 259.004 278.192 260.312C278.252 260.456 278.312 260.528 278.372 260.528C278.444 260.528 278.504 260.474 278.552 260.366C279.356 258.098 280.064 255.854 280.676 253.634C280.724 253.49 280.844 253.382 281.036 253.31C281.228 253.226 281.558 253.148 282.026 253.076C282.506 253.004 282.98 252.968 283.448 252.968C283.916 252.968 284.15 253.064 284.15 253.256C284.15 253.268 284.132 253.364 284.096 253.544C284.06 253.712 284.024 253.922 283.988 254.174C283.952 254.426 283.91 254.732 283.862 255.092C283.754 255.92 283.682 256.874 283.646 257.954C283.622 259.022 283.61 260.096 283.61 261.176L283.646 263.066C283.646 263.93 283.7 264.548 283.808 264.92C283.928 265.28 283.988 265.49 283.988 265.55C283.988 265.598 283.946 265.658 283.862 265.73C283.49 266.03 282.926 266.18 282.17 266.18C281.69 266.18 281.42 266.018 281.36 265.694C281.324 265.526 281.306 265.262 281.306 264.902C281.306 264.53 281.342 263.402 281.414 261.518C281.486 259.634 281.522 258.266 281.522 257.414C281.522 256.55 281.474 256.118 281.378 256.118C281.366 256.118 281.36 256.124 281.36 256.136C281.36 256.136 281.342 256.142 281.306 256.154C281.27 256.166 281.174 256.352 281.018 256.712C280.874 257.072 280.58 257.96 280.136 259.376C279.692 260.792 279.29 262.118 278.93 263.354C278.57 264.578 278.372 265.238 278.336 265.334C278.204 265.658 277.952 265.82 277.58 265.82C277.4 265.82 277.256 265.754 277.148 265.622C276.764 263.846 276.08 261.308 275.096 258.008L274.592 256.37C274.568 256.31 274.544 256.28 274.52 256.28C274.46 256.28 274.418 256.322 274.394 256.406C274.346 257.186 274.322 258.722 274.322 261.014C274.322 263.294 274.406 264.734 274.574 265.334C274.586 265.358 274.592 265.394 274.592 265.442C274.592 265.694 274.394 265.88 273.998 266C273.602 266.108 273.242 266.162 272.918 266.162C272.606 266.162 272.45 266.09 272.45 265.946C272.45 265.934 272.48 265.838 272.54 265.658C272.72 265.046 272.834 264.158 272.882 262.994C272.942 261.83 272.972 260.498 272.972 258.998ZM288.242 270.986C288.242 271.13 288.17 271.202 288.026 271.202H288.008C287.612 271.202 287.162 271.064 286.658 270.788C286.166 270.512 285.92 270.194 285.92 269.834C285.92 269.474 286.148 268.844 286.604 267.944C287.06 267.056 287.288 266.462 287.288 266.162C287.288 265.838 287.132 265.256 286.82 264.416C286.424 263.324 286.106 262.436 285.866 261.752C285.638 261.068 285.386 260.468 285.11 259.952C284.846 259.424 284.654 259.112 284.534 259.016L284.354 258.89C284.222 258.818 284.156 258.74 284.156 258.656C284.156 258.488 284.414 258.32 284.93 258.152C285.458 257.972 285.92 257.882 286.316 257.882C286.496 257.882 286.646 258.026 286.766 258.314C286.982 258.878 287.216 259.658 287.468 260.654C288.08 262.694 288.464 263.714 288.62 263.714C288.728 263.714 288.944 263.294 289.268 262.454C289.604 261.614 289.772 260.936 289.772 260.42C289.772 259.52 289.508 258.992 288.98 258.836C288.86 258.812 288.8 258.752 288.8 258.656C288.8 258.44 289.082 258.236 289.646 258.044C290.21 257.84 290.72 257.738 291.176 257.738C291.572 257.738 291.77 257.996 291.77 258.512C291.77 258.908 291.686 259.37 291.518 259.898C291.35 260.426 291.194 260.846 291.05 261.158C290.906 261.458 290.546 262.166 289.97 263.282C289.406 264.386 288.938 265.358 288.566 266.198C288.158 267.206 287.954 268.232 287.954 269.276C287.954 269.828 288.002 270.242 288.098 270.518C288.194 270.794 288.242 270.95 288.242 270.986ZM301.01 256.028L301.082 255.47C301.082 254.918 300.866 254.564 300.434 254.408C300.098 254.3 299.84 254.246 299.66 254.246H299.642C299.282 254.246 298.97 254.306 298.706 254.426C298.442 254.534 298.25 254.672 298.13 254.84C297.878 255.188 297.734 255.554 297.698 255.938C297.698 256.394 297.902 256.79 298.31 257.126C298.718 257.45 299.21 257.738 299.786 257.99C300.374 258.23 300.956 258.494 301.532 258.782C302.12 259.07 302.618 259.484 303.026 260.024C303.434 260.564 303.638 261.212 303.638 261.968C303.638 263.444 303.17 264.548 302.234 265.28C301.31 266.012 300.254 266.378 299.066 266.378C297.89 266.378 296.912 266.114 296.132 265.586C295.364 265.046 294.98 264.326 294.98 263.426V263.408C294.98 262.964 295.046 262.58 295.178 262.256C295.322 261.92 295.49 261.674 295.682 261.518C296.078 261.194 296.438 261.02 296.762 260.996L296.978 260.978C297.314 260.978 297.62 261.062 297.896 261.23C298.172 261.386 298.31 261.608 298.31 261.896C298.31 262.04 298.232 262.16 298.076 262.256C297.92 262.352 297.782 262.496 297.662 262.688C297.554 262.88 297.494 263.042 297.482 263.174L297.446 263.372C297.446 264.104 297.782 264.59 298.454 264.83C298.694 264.914 298.886 264.956 299.03 264.956C299.69 264.956 300.218 264.758 300.614 264.362C301.022 263.966 301.226 263.462 301.226 262.85C301.226 262.118 300.914 261.524 300.29 261.068C299.822 260.732 299.312 260.45 298.76 260.222C298.22 259.994 297.854 259.832 297.662 259.736C297.47 259.64 297.266 259.526 297.05 259.394C296.834 259.262 296.594 259.076 296.33 258.836C295.754 258.332 295.466 257.654 295.466 256.802C295.466 255.938 295.7 255.212 296.168 254.624C297.008 253.556 298.268 253.022 299.948 253.022C300.836 253.022 301.586 253.196 302.198 253.544C302.81 253.88 303.116 254.348 303.116 254.948C303.116 255.38 302.99 255.74 302.738 256.028C302.498 256.316 302.186 256.46 301.802 256.46C301.622 256.46 301.442 256.424 301.262 256.352C301.094 256.28 301.01 256.172 301.01 256.028ZM306.316 256.37L305.884 256.352C305.56 256.352 305.35 256.43 305.254 256.586C305.23 256.622 305.2 256.64 305.164 256.64C305.008 256.64 304.93 256.376 304.93 255.848C304.93 255.308 305.008 254.966 305.164 254.822C305.332 254.678 305.614 254.606 306.01 254.606C306.418 254.606 306.694 254.678 306.838 254.822C306.982 254.954 307.054 255.182 307.054 255.506C307.054 255.83 307 256.058 306.892 256.19C306.784 256.31 306.592 256.37 306.316 256.37ZM304.876 265.46L305.074 261.266C305.074 260.27 304.96 259.592 304.732 259.232C304.66 259.112 304.576 259.022 304.48 258.962C304.408 258.938 304.372 258.89 304.372 258.818C304.372 258.602 304.678 258.392 305.29 258.188C305.902 257.984 306.346 257.882 306.622 257.882C306.91 257.882 307.06 257.954 307.072 258.098C307.072 258.338 307.036 259.022 306.964 260.15C306.904 261.266 306.874 262.442 306.874 263.678C306.874 264.914 306.946 265.682 307.09 265.982C307.126 266.042 307.144 266.102 307.144 266.162C307.144 266.318 306.916 266.396 306.46 266.396C306.004 266.396 305.536 266.276 305.056 266.036C304.936 265.976 304.876 265.784 304.876 265.46ZM307.971 258.98L308.025 258.26C308.037 258.152 308.121 258.098 308.277 258.098H308.907L308.835 256.658V256.586C308.835 256.31 309.045 256.046 309.465 255.794C309.885 255.542 310.269 255.416 310.617 255.416C310.725 255.416 310.779 255.464 310.779 255.56V255.578C310.731 255.902 310.683 256.736 310.635 258.08C311.163 258.08 311.499 258.068 311.643 258.044C311.787 258.02 311.865 258.008 311.877 258.008C311.961 258.008 312.003 258.08 312.003 258.224C312.003 258.368 311.937 258.554 311.805 258.782C311.673 258.998 311.529 259.112 311.373 259.124H310.617C310.605 259.532 310.599 260.222 310.599 261.194C310.599 262.154 310.605 262.946 310.617 263.57C310.641 264.194 310.665 264.668 310.689 264.992C310.713 265.304 310.737 265.556 310.761 265.748C310.797 265.94 310.821 266.078 310.833 266.162C310.857 266.246 310.869 266.3 310.869 266.324C310.869 266.444 310.791 266.51 310.635 266.522C310.167 266.522 309.699 266.456 309.231 266.324C308.775 266.192 308.547 265.964 308.547 265.64C308.799 263.624 308.925 261.458 308.925 259.142C308.601 259.142 308.355 259.154 308.187 259.178H308.169C308.061 259.178 307.995 259.112 307.971 258.98ZM313.801 261.428L313.819 261.878C313.819 261.95 313.867 261.986 313.963 261.986C314.347 261.95 314.683 261.854 314.971 261.698C315.259 261.53 315.475 261.344 315.619 261.14C315.907 260.696 316.063 260.312 316.087 259.988L316.105 259.772C316.105 259.124 315.847 258.8 315.331 258.8C314.947 258.8 314.635 258.968 314.395 259.304C313.999 259.832 313.801 260.54 313.801 261.428ZM317.725 263.822C317.725 264.278 317.629 264.68 317.437 265.028C317.257 265.364 317.047 265.616 316.807 265.784C316.579 265.94 316.309 266.066 315.997 266.162C315.601 266.282 315.223 266.342 314.863 266.342C313.855 266.342 313.111 265.964 312.631 265.208C312.151 264.452 311.911 263.492 311.911 262.328C311.911 261.152 312.205 260.108 312.793 259.196C313.393 258.284 314.287 257.828 315.475 257.828C316.555 257.828 317.287 258.206 317.671 258.962C317.827 259.25 317.905 259.526 317.905 259.79C317.905 260.042 317.893 260.246 317.869 260.402C317.845 260.546 317.761 260.768 317.617 261.068C317.473 261.368 317.281 261.638 317.041 261.878C316.801 262.118 316.423 262.346 315.907 262.562C315.391 262.778 314.785 262.922 314.089 262.994C313.993 262.994 313.945 263.036 313.945 263.12C313.945 263.228 313.981 263.39 314.053 263.606C314.137 263.81 314.227 263.984 314.323 264.128C314.587 264.464 314.977 264.632 315.493 264.632C316.009 264.632 316.447 264.464 316.807 264.128C316.999 263.948 317.155 263.726 317.275 263.462C317.323 263.366 317.383 263.318 317.455 263.318C317.539 263.318 317.605 263.384 317.653 263.516C317.701 263.648 317.725 263.75 317.725 263.822Z" fill="#BD6248"/>
<rect x="0.5" y="0.5" width="599" height="319" rx="9.5" stroke="#BD6248"/>
</svg>
