<?xml version="1.0" encoding="UTF-8" standalone="no"?>
<svg xmlns:sketch="http://www.bohemiancoding.com/sketch/ns" xmlns="http://www.w3.org/2000/svg" height="387px" width="175px" version="1.1" xmlns:xlink="http://www.w3.org/1999/xlink" viewBox="0 0 175 387"><!-- Generator: Sketch 3.0.3 (7891) - http://www.bohemiancoding.com/sketch -->
 <title>gulp</title>
 <desc>Created with Sketch.</desc>
 <g id="Page-1" fill-rule="evenodd" sketch:type="MSPage" fill="none">
  <g id="gulp" fill="#DA4648" sketch:type="MSArtboardGroup">
   <g id="Gulp-Logo" transform="translate(0 1)" sketch:type="MSLayerGroup">
    <path id="Cup" sketch:type="MSShapeGroup" d="m86.72 303.74c-22.574 0-40.017-3.39-48.405-5.41-5.736-1.39-10.342-2.81-13.841-4.28l11.187 19.11 4.376 59.72c0 6.69 21.268 12.12 47.503 12.12 26.24 0 47.5-5.43 47.5-12.12l3.47-60.37 10.58-18.52c-3.51 1.49-8.16 2.94-13.97 4.34-8.38 2.02-25.83 5.41-48.4 5.41zm62.74-194.33c-16.57 2.31-38.56 3.59-61.92 3.59-23.359 0-45.348-1.28-61.916-3.59-8.207-1.15-14.7-2.5-19.299-4.01-1.097-0.37-2.956-0.99-4.745-1.97l10.265 94.47c0.477-1.63 1.008-3.25 1.597-4.87 1.205-3.32 2.599-6.56 4.181-9.73 1.583-3.17 3.306-6.16 5.169-8.99 1.862-2.82 3.845-5.41 5.946-7.79 2.102-2.37 4.258-4.41 6.472-6.12 2.213-1.71 4.447-3.04 6.702-4 2.256-0.97 4.49-1.45 6.703-1.45 2.549 0 5.015 0.7 7.397 2.09 2.381 1.4 4.607 3.65 6.681 6.77 0.476 0.7 0.778 1.4 0.903 2.12 0.127 0.71 0.189 1.38 0.189 2.01 0 1.5-0.357 2.68-1.071 3.54s-1.562 1.29-2.542 1.29c-0.898 0-1.731-0.47-2.501-1.42-0.771-0.94-1.632-2.29-2.585-4.05-0.897-1.6-1.884-2.75-2.962-3.46-1.079-0.72-2.248-1.07-3.509-1.07-1.961 0-4.055 0.81-6.282 2.44-2.228 1.62-4.434 3.77-6.618 6.44-2.186 2.67-4.28 5.73-6.283 9.16s-3.776 6.95-5.317 10.55-2.765 7.15-3.676 10.65-1.366 6.65-1.366 9.43c0 0.94 0.064 1.89 0.189 2.87 0.127 0.98 0.364 1.86 0.715 2.66 0.349 0.8 0.826 1.45 1.428 1.97 0.603 0.51 1.366 0.77 2.29 0.77 1.037 0 2.213-0.35 3.531-1.05 1.316-0.69 2.682-1.61 4.096-2.73 1.415-1.13 2.837-2.41 4.266-3.84 1.43-1.42 2.76-2.87 3.992-4.33s2.325-2.86 3.277-4.2c0.953-1.35 1.667-2.52 2.144-3.51l3.908-11.7c0.476-1.26 1.099-2.16 1.87-2.69 0.77-0.53 1.562-0.79 2.375-0.79 0.391 0 0.783 0.06 1.176 0.19 0.393 0.14 0.742 0.35 1.051 0.63 0.308 0.28 0.553 0.64 0.735 1.09s0.273 0.97 0.273 1.57c0 1.59-0.14 3.09-0.42 4.48s-0.637 2.75-1.072 4.08c-0.434 1.33-0.918 2.66-1.45 4.01-0.532 1.34-1.051 2.74-1.554 4.2-0.112 0.17-0.315 0.69-0.61 1.57-0.294 0.88-0.65 1.99-1.071 3.31-0.42 1.33-0.876 2.81-1.366 4.46-0.491 1.64-0.994 3.32-1.512 5.02-0.519 1.71-1.016 3.39-1.492 5.03-0.477 1.64-0.905 3.13-1.282 4.46-0.378 1.32-0.693 2.43-0.946 3.33-0.252 0.9-0.406 1.43-0.462 1.6-0.14 0.52-0.365 1.11-0.672 1.76-0.308 0.65-0.672 1.26-1.093 1.84-0.42 0.58-0.882 1.06-1.387 1.44-0.504 0.39-1.022 0.58-1.555 0.58-0.896 0-1.548-0.3-1.953-0.9-0.407-0.6-0.609-1.69-0.609-3.28v-0.7c0-0.23 0.013-0.48 0.041-0.74 0.027-0.54 0.238-1.53 0.631-2.99 0.392-1.46 0.861-3.11 1.408-4.95 0.546-1.85 1.135-3.76 1.765-5.73 0.629-1.97 1.197-3.74 1.702-5.3-1.487 1.66-3.096 3.31-4.833 4.95-1.738 1.64-3.517 3.12-5.337 4.43-1.822 1.31-3.657 2.38-5.505 3.21-1.849 0.83-3.628 1.25-5.337 1.25-1.961 0-3.649-0.43-5.065-1.3-0.255-0.15-0.496-0.33-0.736-0.5l5.712 59.89c1.487 3.72 29.481 12.88 66.391 12.88 36.93 0 64.93-9.17 66.39-12.89l8.21-71.2c-0.68 0.62-1.34 1.23-1.97 1.82-2.36 2.19-4.58 4.07-6.67 5.65-2.08 1.57-4.12 2.79-6.11 3.66-1.99 0.86-4.12 1.29-6.39 1.29-2.13 0-3.77-0.47-4.94-1.39-1.16-0.93-1.74-2.21-1.74-3.84v-0.37c0-0.11 0.01-0.26 0.04-0.42 0.11-1 0.55-2.14 1.31-3.44 0.75-1.29 1.66-2.63 2.73-4.03 1.06-1.39 2.2-2.8 3.4-4.23s2.32-2.78 3.34-4.06c1.02-1.27 1.87-2.44 2.54-3.51 0.68-1.06 1.01-1.92 1.01-2.58 0-0.4-0.14-0.72-0.42-0.95s-0.74-0.35-1.38-0.35c-1.13 0-2.28 0.29-3.47 0.87s-2.37 1.37-3.53 2.34c-1.16 0.98-2.3 2.1-3.41 3.36-1.1 1.26-2.14 2.57-3.1 3.93-0.97 1.37-1.85 2.74-2.65 4.11-0.8 1.38-1.48 2.65-2.04 3.81-0.17 0.36-0.41 0.88-0.72 1.54-0.3 0.66-0.64 1.41-1 2.24-0.37 0.83-0.75 1.69-1.16 2.56-0.41 0.88-0.78 1.72-1.11 2.49-0.34 0.78-0.64 1.48-0.9 2.09-0.27 0.62-0.46 1.04-0.57 1.27-0.14 0.3-0.37 0.87-0.7 1.69-0.32 0.84-0.69 1.81-1.11 2.92s-0.86 2.28-1.32 3.51c-0.46 1.22-0.9 2.39-1.31 3.48-0.4 1.09-0.76 2.06-1.07 2.89s-0.5 1.39-0.59 1.69c-0.28 0.86-0.61 1.67-0.98 2.44-0.38 0.76-0.82 1.43-1.31 2.02-0.49 0.58-1.05 1.04-1.68 1.39s-1.34 0.52-2.12 0.52c-1.01 0-1.84-0.24-2.5-0.72s-0.99-1.4-0.99-2.76c0-0.67 0.09-1.35 0.25-2.04 0.17-0.7 0.38-1.39 0.64-2.07 0.25-0.68 0.51-1.34 0.77-1.99 0.27-0.65 0.51-1.27 0.74-1.87 1.51-3.31 3.05-6.64 4.62-9.98 1.57-3.33 3.07-6.63 4.52-9.9 0.3-0.68 0.57-1.35 0.87-2.03l-0.26 0.26c-1.82 1.76-3.64 3.31-5.44 4.66-1.81 1.34-3.61 2.41-5.38 3.21-1.78 0.79-3.51 1.19-5.2 1.19-1.14 0-2.1-0.18-2.872-0.55-0.771-0.36-1.386-0.86-1.849-1.49s-0.793-1.38-0.989-2.24c-0.066-0.3-0.107-0.6-0.15-0.91-0.492 0.38-0.988 0.76-1.488 1.11-1.737 1.23-3.446 2.21-5.127 2.96-1.68 0.75-3.194 1.12-4.537 1.12-1.346 0-2.438-0.45-3.28-1.34-0.84-0.9-1.259-2.43-1.259-4.58 0-1.53 0.224-3.3 0.671-5.33-0.728 1.3-1.638 2.61-2.73 3.93-1.094 1.33-2.34 2.54-3.74 3.64-1.403 1.09-2.971 1.98-4.707 2.66-1.738 0.68-3.629 1.02-5.673 1.02-0.925 0-1.814-0.12-2.669-0.35s-1.604-0.63-2.248-1.19c-0.645-0.57-1.162-1.32-1.555-2.27-0.392-0.94-0.588-2.13-0.588-3.56 0-0.03 0.056-0.53 0.168-1.51s0.469-2.53 1.072-4.63c0.602-2.11 1.534-4.84 2.793-8.19 1.262-3.35 3.041-7.42 5.338-12.2 0.588-1.26 1.268-2.16 2.037-2.71 0.772-0.55 1.604-0.82 2.5-0.82 0.393 0 0.799 0.06 1.219 0.17 0.422 0.12 0.813 0.3 1.178 0.55 0.363 0.25 0.658 0.57 0.883 0.95 0.222 0.38 0.336 0.82 0.336 1.32 0 0.33-0.043 0.64-0.127 0.94-0.141 0.57-0.442 1.3-0.902 2.22-0.463 0.91-1.003 1.96-1.62 3.13-0.615 1.18-1.267 2.45-1.953 3.81-0.687 1.36-1.324 2.77-1.912 4.23s-1.093 2.95-1.513 4.46-0.659 2.98-0.714 4.4c0 0.6 0.139 1.15 0.42 1.64 0.28 0.5 0.743 0.75 1.387 0.75 1.82 0 3.557-0.6 5.211-1.79 1.652-1.2 3.178-2.68 4.58-4.46 1.401-1.77 2.668-3.68 3.803-5.72s2.08-3.91 2.836-5.6c0.533-1.13 1.002-2.34 1.408-3.63 0.406-1.3 0.848-2.49 1.324-3.59 0.477-1.09 1.022-2.01 1.639-2.73 0.615-0.73 1.387-1.1 2.31-1.1 1.01 0 1.807 0.38 2.397 1.14 0.588 0.77 0.881 1.68 0.881 2.74 0 0.6-0.188 1.42-0.567 2.47-0.379 1.04-0.855 2.24-1.429 3.58-0.575 1.35-1.198 2.78-1.869 4.31-0.672 1.52-1.297 3.07-1.869 4.65-0.577 1.58-1.051 3.12-1.43 4.63s-0.567 2.91-0.567 4.2c0 1.2 0.616 1.8 1.848 1.8 0.869 0 1.947-0.3 3.236-0.9s2.641-1.44 4.055-2.51c0.353-0.27 0.709-0.55 1.062-0.85 0.395-1.63 0.858-3.13 1.397-4.5 0.98-2.59 1.974-5.16 2.984-7.72 1.01-2.55 1.93-4.89 2.77-7.02l12.74-32.1c0.5-1.3 1.18-2.21 2.03-2.74 0.86-0.53 1.72-0.8 2.59-0.8s1.66 0.29 2.37 0.85c0.72 0.57 1.08 1.48 1.08 2.74 0 0.6-0.12 1.23-0.36 1.89s-0.54 1.38-0.91 2.14c-0.7 1.56-1.53 3.47-2.5 5.72-0.96 2.26-2 4.72-3.11 7.37-1.1 2.66-2.24 5.42-3.4 8.29s-2.3 5.66-3.4 8.38c-1.11 2.73-2.15 5.3-3.12 7.74-0.96 2.44-1.79 4.56-2.5 6.35-0.3 0.76-0.6 1.65-0.9 2.67-0.29 1.01-0.44 1.91-0.44 2.71 0 0.49 0.09 0.89 0.25 1.19 0.17 0.3 0.49 0.45 0.97 0.45 0.59 0 1.32-0.21 2.21-0.62 0.88-0.42 1.83-0.97 2.85-1.65 1.03-0.68 2.09-1.46 3.2-2.34 1.1-0.87 2.2-1.79 3.3-2.73 1.09-0.95 2.13-1.89 3.13-2.84 0.99-0.95 1.88-1.82 2.67-2.61 0.18-0.19 0.4-0.33 0.64-0.43 0.48-1.41 0.91-2.8 1.29-4.15 0.22-0.6 0.53-1.44 0.92-2.54s0.84-2.17 1.35-3.24c0.5-1.06 1.07-1.98 1.7-2.76s1.31-1.17 2.04-1.17c1.12 0 1.93 0.26 2.44 0.77 0.5 0.52 0.75 1.27 0.75 2.27 0 0.2-0.03 0.51-0.08 0.94-0.06 0.44-0.13 0.89-0.21 1.37-0.09 0.48-0.18 0.94-0.28 1.37s-0.18 0.75-0.27 0.95c1.04-1.13 2.16-2.25 3.36-3.36 1.21-1.11 2.45-2.12 3.74-3.01 1.29-0.9 2.61-1.63 3.95-2.19 1.35-0.57 2.69-0.85 4.04-0.85 0.92 0 1.84 0.13 2.75 0.4 0.91 0.26 1.72 0.65 2.44 1.17 0.71 0.51 1.29 1.16 1.74 1.94s0.67 1.68 0.67 2.71c0 1.36-0.34 2.81-1.03 4.36-0.68 1.54-1.54 3.09-2.58 4.65s-2.16 3.08-3.36 4.56c-1.21 1.47-2.33 2.82-3.39 4.03-1.05 1.21-1.93 2.24-2.64 3.08-0.72 0.85-1.09 1.42-1.12 1.72 0 0.4 0.13 0.72 0.38 0.97s0.67 0.38 1.26 0.38c0.48 0 1.18-0.27 2.1-0.8 0.93-0.53 2.22-1.45 3.89-2.76 1.67-1.32 3.78-3.07 6.35-5.28 1.75-1.51 3.81-3.32 6.13-5.37l11.11-102.93c-1.78 0.99-3.65 1.61-4.74 1.98-4.6 1.51-11.1 2.86-19.3 4.01zm-61.986-24.42c-48.049 0-87 5.372-87 12 0 6.63 38.951 12 87 12 48.046 0 86.996-5.37 86.996-12 0-6.628-38.95-12-86.996-12zm34.736 15.51c0 1.55-4.63 2.81-10.34 2.81s-10.34-1.26-10.34-2.81c0-1.559 4.63-2.82 10.34-2.82s10.34 1.261 10.34 2.82z"/>
    <path id="Straw" sketch:type="MSShapeGroup" d="m103.63 99.252c-0.05 0.082-0.08 0.165-0.08 0.25 0 1.008 3.73 1.818 8.32 1.818 4.6 0 8.33-0.81 8.33-1.818l10.87-44.078 43.23-45.645c0.01-0.0137 0.03-0.0281 0.04-0.043 0.92-1.035-0.94-4.238-4.02-6.985s-6.41-3.677-7.44-2.631c-0.01 0.00782-0.02 0.01576-0.03 0.0238l-46.13 48.538-13.09 50.57z"/>
   </g>
  </g>
 </g>
</svg>
